<svg width="47" height="20" viewBox="0 0 47 20" fill="none" xmlns="http://www.w3.org/2000/svg">
<path d="M42.6812 0H3.85913C1.73512 0 0 1.73504 0 3.85898V16.141C0 18.265 1.73512 20 3.85913 20H42.6812C44.8053 20 46.5404 18.265 46.5404 16.141V3.85898C46.5404 1.73504 44.8053 0 42.6812 0ZM15.0006 12.6923C15.0006 13.9615 13.9621 15 12.6928 15H8.07725C6.80797 15 5.76947 13.9615 5.76947 12.6923C5.76947 12.6538 5.76947 5.14957 5.76947 5.14957C5.76947 5.06838 5.83785 5 5.91905 5H8.31231C8.39351 5 8.46188 5.06838 8.46188 5.14957V12.1795C8.46188 12.4615 8.69266 12.6923 8.97473 12.6923H11.7954C12.0774 12.6923 12.3082 12.4615 12.3082 12.1795V5.14957C12.3082 5.06838 12.3766 5 12.4578 5H14.851C14.9322 5 15.0006 5.06838 15.0006 5.14957C15.0006 5.14957 15.0006 12.6538 15.0006 12.6923ZM28.467 14.8291C28.467 14.9231 28.3858 15 28.2918 15H25.9412C25.8472 15 25.7703 14.9231 25.7703 14.8291V8.90598L23.424 11.7051C23.3557 11.7863 23.2317 11.7863 23.1633 11.7051L20.7744 8.8547V14.8291C20.7744 14.9231 20.6974 15 20.6034 15H18.2529C18.1589 15 18.0819 14.9231 18.0819 14.8291V5.17094C18.0819 5.07692 18.1589 5 18.2529 5H20.6034C20.6205 5 20.6461 5 20.6461 5C20.7316 5 20.753 5.01709 20.7872 5.05983L23.2018 7.9359C23.2488 7.99573 23.3386 7.99573 23.3856 7.9359L25.8045 5.05556C25.8301 5.02137 25.86 5 25.9028 5C25.9028 5 25.9327 5 25.9455 5H28.296C28.3901 5 28.467 5.07692 28.467 5.17094V14.8291ZM40.7709 14.8291C40.7709 14.9231 40.694 15 40.5999 15H38.2494C38.1554 15 38.0785 14.9231 38.0785 14.8291V12.0513H34.2322V14.8291C34.2322 14.9231 34.1552 15 34.0612 15H31.7107C31.6167 15 31.5397 14.9231 31.5397 14.8291V8.52564C31.5397 7.48718 32.1124 6.53419 33.0313 6.04701L35.1681 4.91453C35.8519 4.55128 36.6724 4.55128 37.3562 4.91453L39.2794 5.93163C40.1982 6.41881 40.7709 7.3718 40.7709 8.41026V14.8291Z" fill="white"/>
<path d="M37.7323 8.15812L36.4929 7.5C36.3476 7.42308 36.1767 7.42308 36.0314 7.5L34.5783 8.26923C34.3647 8.38034 34.2322 8.60256 34.2322 8.84616V9.91026H38.0785V8.73505C38.0785 8.49573 37.946 8.27351 37.7323 8.15812Z" fill="white"/>
</svg>
